<?xml version="1.0" encoding="UTF-8" standalone="no"?>
<!-- Created with Inkscape (http://www.inkscape.org/) -->

<svg
   xmlns:dc="http://purl.org/dc/elements/1.1/"
   xmlns:cc="http://creativecommons.org/ns#"
   xmlns:rdf="http://www.w3.org/1999/02/22-rdf-syntax-ns#"
   xmlns:svg="http://www.w3.org/2000/svg"
   xmlns="http://www.w3.org/2000/svg"
   xmlns:sodipodi="http://sodipodi.sourceforge.net/DTD/sodipodi-0.dtd"
   xmlns:inkscape="http://www.inkscape.org/namespaces/inkscape"
   width="101.05659mm"
   height="166.78697mm"
   viewBox="0 0 101.05659 166.78697"
   version="1.1"
   id="svg8"
   inkscape:version="0.92.0 r"
   sodipodi:docname="logo.svg">
  <defs
     id="defs2" />
  <sodipodi:namedview
     id="base"
     pagecolor="#ffffff"
     bordercolor="#666666"
     borderopacity="1.0"
     inkscape:pageopacity="0.0"
     inkscape:pageshadow="2"
     inkscape:zoom="0.98994949"
     inkscape:cx="107.60723"
     inkscape:cy="264.69594"
     inkscape:document-units="mm"
     inkscape:current-layer="layer1"
     showgrid="false"
     inkscape:snap-others="false"
     inkscape:snap-nodes="false"
     fit-margin-top="0"
     fit-margin-left="0"
     fit-margin-right="0"
     fit-margin-bottom="0"
     inkscape:window-width="1920"
     inkscape:window-height="1025"
     inkscape:window-x="0"
     inkscape:window-y="27"
     inkscape:window-maximized="1" />
  <metadata
     id="metadata5">
    <rdf:RDF>
      <cc:Work
         rdf:about="">
        <dc:format>image/svg+xml</dc:format>
        <dc:type
           rdf:resource="http://purl.org/dc/dcmitype/StillImage" />
        <dc:title></dc:title>
      </cc:Work>
    </rdf:RDF>
  </metadata>
  <g
     inkscape:label="Layer 1"
     inkscape:groupmode="layer"
     id="layer1"
     transform="translate(-47.429713,-79.278693)">
    <path
       id="path4623"
       style="fill:#000000;stroke-width:0.26458332"
       d="m 122.20241,233.73049 c 0.88582,-0.44561 1.70229,-1.47199 2.03977,-2.56418 0.14332,-0.46385 0.38852,-5.36774 0.54489,-10.89753 0.15636,-5.5298 0.34935,-11.95917 0.42886,-14.2875 0.18927,-5.54275 0.50618,-16.12214 1.08359,-36.17327 l 0.003,-15.9119 -0.31599,-1.52322 c -0.45043,-2.1713 -2.26787,-2.0864 -3.91856,-2.0864 -2.67328,0 -4.38736,1.71482 -4.57862,4.58059 -0.0601,0.90041 -0.46403,13.66243 -0.89764,28.36003 -0.43361,14.6976 -0.90508,30.17573 -1.04772,34.39583 -0.40775,12.06326 -0.37742,13.37974 0.33227,14.42248 1.46143,2.14729 4.04164,2.83452 6.32663,1.68507 z m -22.537775,0.0982 c 1.372325,-0.70122 2.066745,-1.56914 2.397915,-2.99704 0.3388,-1.46077 0.3292,-75.03527 -0.01,-76.87101 -0.20952,-1.13385 -0.47385,-1.62427 -1.29314,-2.39915 -1.130265,-1.06899 -2.776865,-1.64959 -3.923695,-1.3835 -1.40183,0.32525 -2.90505,1.38809 -3.41507,2.4146 -0.48006,0.96621 -0.49745,2.35682 -0.49745,39.78199 v 38.78078 l 0.74511,1.12592 c 1.34072,2.02598 3.81181,2.66366 5.99636,1.54741 z m -21.847556,-0.18308 c 0.532032,-0.32882 1.221306,-1.09187 1.53172,-1.69566 0.563428,-1.09596 0.563875,-1.11512 0.263314,-11.28428 -0.165592,-5.60255 -0.665441,-22.74755 -1.110779,-38.1 -0.445336,-15.35244 -0.930087,-28.362 -1.077222,-28.91011 -0.147135,-0.54812 -0.625287,-1.40405 -1.062559,-1.90208 -2.027851,-2.30959 -6.12712,-1.77049 -7.556582,0.99379 -0.489026,0.94567 -0.469042,2.79124 0.301393,27.83403 0.214892,6.985 0.569399,18.65312 0.787794,25.92916 0.72975,24.31223 0.716968,24.02492 1.111948,24.99344 0.506556,1.24212 1.083734,1.84384 2.337898,2.4373 1.345226,0.63655 3.158744,0.51671 4.473075,-0.29559 z m -21.058975,11.42787 c -1.286209,-1.3425 -1.749556,-2.34764 -2.065494,-4.48069 -0.146891,-0.99174 -0.573328,-8.41113 -0.947637,-16.48754 -0.374308,-8.0764 -1.434034,-29.84256 -2.354946,-48.36924 -1.15718,-23.27987 -1.597523,-33.96324 -1.425556,-34.58605 0.322185,-1.16686 1.31379,-2.33207 2.43902,-2.86602 0.80857,-0.38369 5.121026,-0.42539 45.242614,-0.43746 7.396675,4.14989 44.493985,-6.99766 47.493385,3.29334 0.16134,0.58433 0.0793,4.20175 -0.23829,10.50897 -0.26638,5.28986 -1.31974,26.82246 -2.34081,47.85022 -1.02107,21.02776 -1.9714,39.26178 -2.11186,40.52005 -0.28698,2.57097 -0.72067,3.61485 -2.09987,5.05442 l -0.95059,0.99219 H 97.553375 57.708691 Z M 52.839051,144.54536 c -3.230077,-0.41229 -6.85212,-5.01863 -4.820335,-7.09342 0.949135,-0.85896 1.385159,-1.0738 3.961185,-1.15733 2.366717,-0.0768 2.548014,-0.1123 3.210695,-0.62954 0.386287,-0.30151 1.251199,-0.83923 1.922027,-1.19494 0.684808,-0.36311 1.548265,-1.03982 1.968943,-1.54309 0.739057,-0.88415 1.912588,-1.60656 3.383261,-2.0827 0.599859,-0.1942 0.752507,-0.34385 0.752507,-0.73773 0,-1.47543 2.707741,-4.49148 4.032354,-4.49148 0.370492,0 0.58302,-0.10411 0.58302,-0.28561 0,-0.60016 1.101122,-1.54942 2.738386,-2.36071 1.532001,-0.75914 1.880933,-0.85189 3.49513,-0.92907 0.986272,-0.0472 1.793221,-0.16473 1.793221,-0.26128 0,-0.40082 1.484273,-1.77719 2.155371,-1.99867 0.592844,-0.19565 1.079945,-0.17374 2.685289,0.12081 l 1.961072,0.35982 1.064008,-0.72634 c 1.227784,-0.83814 2.514501,-1.18818 3.416588,-0.92947 0.340043,0.0975 1.152786,0.49573 1.806084,0.8849 0.653298,0.38916 1.257647,0.70758 1.342993,0.70758 0.08535,0 0.326998,-0.18985 0.536985,-0.42189 0.525927,-0.58113 1.357184,-0.98279 2.033956,-0.98279 0.31211,0 1.212065,0.30891 1.999901,0.68647 1.399861,0.67086 1.440285,0.67781 1.777257,0.30547 0.189645,-0.20956 0.801856,-0.60877 1.360476,-0.88715 1.30997,-0.65278 2.667835,-0.68044 3.443705,-0.0701 0.61895,0.48687 0.66254,0.4804 3.48229,-0.51672 1.83255,-0.64803 2.28389,-0.65028 3.36488,-0.0168 l 0.86085,0.50449 0.10122,-0.655 c 0.0557,-0.36024 0.24818,-1.7371 0.42783,-3.05968 0.17965,-1.32259 0.44354,-2.68451 0.58644,-3.0265 0.39113,-0.93611 1.16312,-1.42478 2.66367,-1.68609 0.74231,-0.12926 1.45944,-0.32614 1.59362,-0.4375 0.22886,-0.18994 1.5424,-3.44866 5.85228,-14.518741 2.05981,-5.290699 3.53063,-8.736279 4.7113,-11.036769 1.57989,-3.078362 4.22271,-4.951521 7.17696,-5.086826 1.77389,-0.08124 2.60689,0.233438 3.08976,1.167227 0.48382,0.935578 0.36634,1.672243 -0.61474,3.855185 -1.25895,2.80117 -2.59123,6.167091 -4.83085,12.204861 -2.04838,5.522203 -4.09395,10.851783 -5.07463,13.221553 -0.33741,0.81534 -0.61347,1.50344 -0.61347,1.5291 0,0.0256 0.40877,0.1611 0.90837,0.30099 0.56118,0.15711 1.10808,0.49165 1.43084,0.87523 0.49172,0.58438 0.51534,0.70967 0.4014,2.12961 -0.13856,1.72674 -0.9154,4.70717 -1.478,5.67048 -0.5086,0.87084 -1.14229,1.17699 -1.89391,0.91498 -1.13601,-0.39602 -1.24793,-1.44057 -0.45113,-4.21022 0.65489,-2.27635 0.52493,-2.7729 -0.72574,-2.7729 -1.07458,0 -2.09216,-0.4436 -2.52183,-1.09936 -0.38388,-0.58586 -0.34873,-0.69771 0.82104,-2.613 0.54289,-0.8889 2.11227,-4.5356 4.31793,-10.03343 1.40012,-3.489919 1.84028,-4.659694 3.69989,-9.832753 0.4761,-1.324411 1.26818,-3.408735 1.7602,-4.631828 1.17847,-2.929549 1.26698,-3.294575 0.79888,-3.294575 -0.73407,0 -2.41923,2.152316 -3.73582,4.771477 -1.68982,3.361674 -5.54728,12.615659 -7.04493,16.900719 -1.85331,5.30267 -2.84862,7.43355 -3.83424,8.20884 -0.27522,0.21648 -0.98722,0.45443 -1.58224,0.52877 -0.62284,0.0778 -1.21428,0.2815 -1.39395,0.48003 -0.17165,0.18967 -0.67392,1.35918 -1.11615,2.59892 -0.44225,1.23972 -0.93907,2.51511 -1.10407,2.83418 -0.36986,0.71522 -0.38954,2.00623 -0.0379,2.48711 0.30582,0.41822 1.12341,0.36951 1.36005,-0.081 0.087,-0.16555 0.39511,-1.20401 0.68478,-2.30769 0.75474,-2.87554 0.93762,-3.31839 1.56333,-3.78555 0.4393,-0.32798 0.63255,-0.36958 0.90287,-0.19432 0.50413,0.32683 0.38865,1.46306 -0.36382,3.57999 -0.35281,0.99251 -0.68937,2.01987 -0.74791,2.28303 -0.0999,0.44893 -0.0644,0.47029 0.57428,0.34594 1.71741,-0.33439 4.91457,-0.35562 6.39978,-0.0425 2.33294,0.49182 5.0167,1.95869 5.0167,2.74199 0,0.2954 0.19215,0.41512 0.82986,0.5171 0.46885,0.0749 1.10173,0.37109 1.45484,0.6807 0.3525,0.30909 1.14994,0.68252 1.82901,0.85652 1.96955,0.50468 3.50241,1.1483 4.20594,1.766 0.36375,0.31937 1.37223,1.46146 2.24108,2.53795 0.86884,1.0765 1.95593,2.31848 2.41573,2.75995 0.45981,0.44148 0.86617,1.02184 0.90301,1.28971 0.0635,0.46147 0.20915,0.51087 2.77601,0.94123 3.09934,0.51964 4.35135,0.0787 5.00159,1.68185 -4.64021,24.90625 -78.919484,7.52188 -95.647241,7.49232 z m 90.983929,-4.64577 c 0.45202,-2.40631 -14.73953,-1.00649 -15.78975,-0.95188 -9.69042,0.5166 -32.97353,1.06532 -53.277456,1.2556 -8.775707,0.0822 -11.354753,0.0416 -14.749131,-0.23261 -6.237565,-0.50382 -7.701446,-0.57749 -8.49949,-0.42778 -0.636814,0.11946 -0.731258,0.21059 -0.731258,0.70553 0,1.17924 -1.019751,1.12397 19.646201,1.06484 10.440362,-0.0299 20.653038,-0.0996 22.694843,-0.15496 17.746191,-0.4811 30.730251,-0.72097 33.411281,-0.61724 6.33736,-1.80744 13.74253,4.12424 17.29476,-0.64151 z m -75.590301,-2.89652 c -0.0045,-0.8223 -3.614392,-2.15718 -5.833653,-2.15718 -1.346262,0 -2.751577,0.44812 -3.082014,0.98277 -0.1754,0.28381 2.408897,1.05271 4.100995,1.22017 2.601215,0.25743 4.816213,0.23638 4.814672,-0.0457 z m 7.343827,-7.5e-4 c 0.213921,-0.21469 -0.623469,-1.0497 -1.907289,-1.90185 -2.385748,-1.58355 -6.321439,-2.65782 -9.047199,-2.46946 l -0.70234,0.0485 0.70234,0.20209 c 0.386286,0.11114 1.16329,0.32638 1.726674,0.47831 1.44252,0.389 4.494047,2.89416 4.494047,3.68941 0,0.26885 4.46321,0.22451 4.733767,-0.047 z m 6.704335,-0.0194 c 0,-0.29745 -1.714949,-2.62741 -2.351688,-3.19503 -0.219483,-0.19567 -1.010933,-0.52543 -1.758779,-0.7328 -2.123134,-0.58873 -3.021631,-1.46888 -2.832152,-2.77433 0.08523,-0.58721 0.04466,-0.65217 -0.40735,-0.65217 -0.306817,0 -0.691129,-0.22476 -0.988395,-0.57803 -0.660125,-0.78452 -1.695165,-1.24072 -3.27888,-1.44517 -2.200145,-0.28403 -3.190179,-0.0657 -4.185396,0.92267 -0.469063,0.46588 -0.852841,1.02707 -0.852841,1.24709 0,0.34399 0.178943,0.41835 1.277559,0.53091 1.558384,0.15966 3.532502,0.81501 6.056001,2.0104 2.01842,0.95613 3.79429,2.42455 4.939956,4.0847 l 0.588545,0.85284 h 1.89671 c 1.459122,0 1.89671,-0.0626 1.89671,-0.27108 z m 16.856134,-0.11886 c 0,-0.70175 -1.67104,-3.69235 -2.240891,-4.01045 -0.479655,-0.26775 -0.650818,-0.26232 -1.64868,0.0522 -0.612395,0.19305 -1.166225,0.43639 -1.23073,0.54076 -0.06447,0.10437 0.106294,0.5748 0.37955,1.04541 0.273263,0.4706 0.557591,1.18804 0.631849,1.5943 l 0.135017,0.73864 1.334779,0.12924 c 0.734116,0.0711 1.425066,0.1605 1.535436,0.19869 0.60692,0.21003 1.10367,0.08 1.10367,-0.28881 z m -7.876223,0.058 c 1.372838,-0.10687 1.655513,-0.18704 1.655513,-0.46953 0,-0.3707 -3.130693,-6.06442 -4.57967,-8.32894 -1.089722,-1.70308 -4.069821,-4.64546 -5.485228,-5.41582 -1.255633,-0.68339 -3.301678,-0.9046 -4.358932,-0.47125 l -0.678042,0.27792 1.781719,1.09835 c 2.582879,1.59223 6.780779,5.77815 7.765891,7.74374 0.918832,1.83334 1.579245,3.79865 1.501566,4.46846 -0.054,0.46547 -0.160879,0.5332 -0.928677,0.58844 -1.104163,0.0795 -1.367491,-0.15143 -1.633716,-1.43236 -0.272896,-1.31306 -1.034955,-2.96545 -1.831368,-3.971 -0.663285,-0.83747 -0.984956,-0.98165 -0.984956,-0.44149 0,0.64679 -0.810948,2.00939 -1.339096,2.25003 l -0.530497,0.24172 0.824278,0.84266 c 0.453352,0.46346 1.061233,1.36189 1.350844,1.9965 l 0.526564,1.15384 2.644151,-0.002 c 1.454278,-6.1e-4 3.389121,-0.0592 4.299656,-0.13008 z m 14.498288,-0.22831 c 0,-0.43995 -3.49138,-6.11495 -4.88648,-7.94262 -3.847626,-5.04068 -7.145523,-8.10533 -8.261404,-7.67713 -0.537986,0.20645 -0.3139,0.65576 1.125528,2.25678 0.78233,0.87016 1.939348,2.30451 2.571145,3.18746 1.381856,1.93116 4.835831,8.50411 4.835831,9.20263 0,1.09581 0.0773,1.1318 2.42949,1.1318 1.20224,0 2.18589,-0.0715 2.18589,-0.15892 z m 3.21069,-0.13024 c 0,-0.0487 -0.0903,-0.1443 -0.20066,-0.21251 -0.11037,-0.0682 -0.20067,-0.0284 -0.20067,0.0885 0,0.11688 0.0903,0.21251 0.20067,0.21251 0.11036,0 0.20066,-0.0398 0.20066,-0.0885 z m 6.32106,-0.11191 1.40468,-0.002 0.85372,-1.10541 c 1.20286,-1.55748 3.82125,-3.42208 7.67468,-5.46524 3.05096,-1.61767 3.25561,-1.76024 2.60539,-1.81506 -0.71661,-0.0604 -2.93955,0.80611 -7.3238,2.85488 -2.12755,0.99421 -4.93932,2.77952 -5.9163,3.7565 -0.53763,0.53763 -2.19572,1.24853 -4.31508,1.85006 -0.22074,0.0626 0.50167,0.072 1.60535,0.0208 1.10367,-0.0511 2.63878,-0.0938 3.41136,-0.0948 z m 12.34079,-1.11138 0.50134,-0.25668 -0.72205,-0.13545 c -0.9481,-0.17787 -1.70268,-0.90124 -1.8699,-1.79256 -0.0983,-0.52416 -0.23745,-0.71757 -0.51612,-0.71757 -0.3863,0 -4.34771,2.54407 -4.78858,3.07529 -0.20709,0.24954 0.24124,0.27461 3.32731,0.18603 2.31114,-0.0664 3.74312,-0.19274 4.068,-0.35906 z m 10.62936,-0.45263 c -0.0241,-1.29641 -1.99185,-1.79241 -4.50937,-1.13666 -1.24673,0.32473 -2.73338,1.05441 -2.84433,1.39606 -0.0423,0.13031 1.23661,0.18007 3.64746,0.14193 3.34671,-0.0529 3.712,-0.0925 3.70624,-0.40133 z m -31.0932,-1.55147 c 0.13962,-0.16822 0.198,-0.36169 0.12976,-0.42994 -0.14574,-0.14574 -0.73579,0.30308 -0.73579,0.5597 0,0.27641 0.32706,0.20638 0.60603,-0.12976 z m 7.73113,-1.99921 c 1.65321,-1.05754 3.49498,-1.92809 6.77614,-3.20288 1.63507,-0.63525 2.93375,-1.19412 2.88594,-1.24192 -0.15729,-0.1573 -5.41997,0.72585 -7.26348,1.21891 -2.22866,0.59606 -4.97701,1.59915 -5.0595,1.84661 -0.0337,0.10129 0.20342,0.3406 0.52708,0.53179 0.35723,0.21102 0.64024,0.58331 0.72021,0.94741 0.0724,0.32989 0.17405,0.59979 0.22576,0.59979 0.0517,0 0.58625,-0.31486 1.18785,-0.69971 z m 19.05409,0.0968 c 0.69059,-0.009 0.93856,-0.28927 0.78776,-0.8901 -0.19566,-0.77958 -1.17257,-1.31539 -2.39311,-1.31256 -1.19899,0.003 -1.79901,0.29055 -1.26409,0.60627 0.64324,0.37966 0.96309,0.82364 0.96309,1.33684 0,0.48182 0.0466,0.5059 0.7525,0.38921 0.41388,-0.0684 0.93311,-0.12676 1.15385,-0.12966 z m -27.44392,-0.9932 c 0.61342,-0.54674 1.71151,-1.30717 2.44018,-1.68985 2.81603,-1.47891 9.2625,-3.34959 12.61367,-3.66032 0.80082,-0.0743 1.6106,-0.24803 1.7995,-0.38615 0.30692,-0.22442 0.26204,-0.28516 -0.42174,-0.57086 -1.52987,-0.63922 -3.91988,-0.98785 -5.88654,-0.85867 -2.47364,0.16249 -6.55548,1.00483 -8.45551,1.7449 -2.18756,0.85206 -5.1323,2.62811 -5.20789,3.141 -0.0798,0.54116 1.51936,3.27401 1.91577,3.27401 0.048,0 0.58913,-0.44733 1.20256,-0.99406 z m -13.320733,-1.73047 c 0.678137,-0.1741 1.306361,-0.38746 1.396061,-0.47412 0.228007,-0.2203 -1.916102,-2.83124 -3.814298,-4.64476 -1.795156,-1.71508 -3.691129,-2.79197 -4.915547,-2.79197 -1.098024,0 -1.255223,0.51593 -0.363571,1.19324 1.453481,1.10409 2.998081,2.69017 3.935396,4.04108 0.53986,0.77807 1.230457,1.76982 1.534657,2.20388 0.304207,0.43407 0.65238,0.7892 0.773714,0.7892 0.121334,0 0.775451,-0.14245 1.453588,-0.31655 z m -13.584692,-1.46401 1.169485,-0.12579 -1.202646,-0.98347 c -1.665801,-1.36222 -2.686808,-1.77894 -4.614011,-1.8832 -1.767869,-0.0956 -2.846793,0.12392 -3.913035,0.79629 l -0.70234,0.44289 0.952356,0.14482 c 0.523795,0.0797 1.675227,0.38556 2.558736,0.6798 1.653231,0.55057 2.207959,1.01193 2.207959,1.83633 0,0.43707 0.01451,0.435 1.187006,-0.1697 0.715473,-0.369 1.651577,-0.66216 2.35649,-0.73797 z m 28.312605,-4.35186 c 0.80017,-0.29875 1.45485,-0.60966 1.45485,-0.69091 0,-0.35881 -1.68558,-2.21933 -2.10631,-2.32493 -1.03413,-0.25955 -5.08396,1.26431 -4.58137,1.72387 0.0913,0.0835 0.48852,0.25466 0.88276,0.38044 0.39425,0.12578 1.02635,0.54885 1.40468,0.94016 0.76917,0.79556 0.73702,0.79587 2.94539,-0.0287 z m -8.888735,-0.67268 c 0.16618,-0.32136 0.54589,-0.77602 0.8438,-1.01036 0.499675,-0.39304 0.516425,-0.45132 0.216075,-0.75167 -0.300355,-0.30035 -0.392615,-0.29939 -1.189825,0.0124 -0.47533,0.18593 -1.03532,0.46799 -1.24442,0.62679 -0.36852,0.27987 -0.36359,0.31049 0.16072,0.9979 0.29749,0.39004 0.62428,0.70915 0.72619,0.70915 0.10192,0 0.32128,-0.26292 0.48746,-0.58428 z m 18.974155,-1.72121 c -0.15164,-0.18271 -0.19957,-0.55302 -0.12335,-0.95317 0.21968,-1.15342 1.21453,-3.61452 1.54531,-3.82287 0.45083,-0.28395 1.33512,-0.0156 1.48289,0.44999 0.12002,0.37813 -0.53545,2.28177 -1.33334,3.87235 -0.40926,0.81586 -1.10439,1.01654 -1.57151,0.4537 z"
       inkscape:connector-curvature="0"
       sodipodi:nodetypes="ccccscsscsscccccccssccccccsscccsscscscsscccccscccccscccccccsssccscscsccscsccccccccccccsscccscsccscccscccscscsccccssccccccccscccccsccccccccccsccccccscsccccccccscsccsscscscsccssccccccccccccsccccssccccsccccccccsccccsssscsssccsccssccccccccsccccccccccsccccccscscccccscccsccccccscsccsccsssccscccccscccscccsccccccccscccccccc" />
  </g>
</svg>
